<?xml version="1.0" encoding="UTF-8"?>
<svg width="100pt" height="100pt" version="1.1" viewBox="0 0 100 100" xmlns="http://www.w3.org/2000/svg">
 <path d="m79.301 30.199c6.1016 0 11-4.8984 11-11 0-6.1016-4.8984-11-11-11-6.1016 0-11 4.8984-11 11 0 2.6992 1 5.1016 2.5 7l-13.402 14.301c-1.8984-1.6016-4.3984-2.6016-7.1016-2.6016-2.6992 0-5.1016 0.89844-7 2.5l-13.496-12.5c0.60156-1.1016 1-2.3008 1-3.6992 0-4-3.3008-7.3008-7.3008-7.3008s-7.3008 3.3008-7.3008 7.3008 3.3008 7.3008 7.3008 7.3008c1.6016 0 3.1016-0.60156 4.3984-1.5l13.5 12.5c-1.3008 1.8008-2 4-2 6.3008 0 2.6016 0.89844 5 2.3984 6.8984l-14.898 15.801c-1.8008-1.3008-4-2.1016-6.3984-2.1016-6.1016 0-11 4.8984-11 11 0 6.1016 4.8984 11 11 11s11-4.8984 11-11c0-2.6016-0.89844-5-2.3984-6.8984l14.801-15.699c1.6992 1.3008 3.8984 2 6.1992 2.1016l1.8984 17.199c-3.6992 1.1016-6.3984 4.3984-6.3984 8.3984 0 4.8984 3.8984 8.8008 8.8008 8.8008 4.8984 0 8.8008-3.8984 8.8008-8.8008 0-4.6992-3.6992-8.5-8.3008-8.8008l-1.9023-17.098c2-0.5 3.8984-1.6016 5.3008-3.1016l13.699 9.8984c-0.39844 0.89844-0.69922 1.8984-0.69922 3 0 4 3.3008 7.3008 7.3008 7.3008s7.3008-3.3008 7.3008-7.3008-3.3008-7.3008-7.3008-7.3008c-1.8984 0-3.6016 0.69922-4.8984 1.8984l-13.703-9.8945c0.80078-1.5 1.3008-3.3008 1.3008-5.1992 0-2.3008-0.69922-4.3984-1.8984-6.1992l13.598-14.402c1.8008 1.1992 3.8984 1.8984 6.3008 1.8984z"/>
</svg>
